<?xml version="1.0" standalone="no"?>
<!DOCTYPE svg PUBLIC "-//W3C//DTD SVG 20010904//EN"
 "http://www.w3.org/TR/2001/REC-SVG-20010904/DTD/svg10.dtd">
<svg version="1.0" xmlns="http://www.w3.org/2000/svg"
 width="1024.000000pt" height="1024.000000pt" viewBox="0 0 1024.000000 1024.000000"
 preserveAspectRatio="xMidYMid meet">

<g transform="translate(0.000000,1024.000000) scale(0.100000,-0.100000)"
fill="#000000" stroke="none">
<path d="M2040 6481 c-74 -23 -147 -89 -178 -160 -8 -20 -18 -79 -21 -131 l-6
-95 -212 -1 c-200 -2 -213 -3 -252 -25 -45 -25 -86 -78 -101 -130 -6 -21 -10
-321 -10 -770 0 -796 0 -792 54 -864 14 -18 50 -45 79 -59 l53 -26 299 2 300
3 19 85 c10 47 20 86 22 88 2 4 316 41 347 42 15 0 17 -12 17 -110 l0 -110 60
0 60 0 0 111 0 112 53 -7 c28 -3 95 -11 147 -17 175 -20 162 -12 186 -109 l21
-85 294 -3 c332 -3 360 2 421 66 73 76 69 14 66 886 l-3 784 -30 44 c-17 23
-50 53 -72 66 -40 22 -54 23 -255 25 l-213 2 -6 91 c-9 138 -64 230 -168 278
-44 20 -61 21 -496 23 -247 1 -461 -2 -475 -6z m899 -174 c48 -24 65 -61 65
-139 l1 -73 -497 -3 -498 -2 0 70 c0 44 6 82 15 100 31 59 31 59 480 59 306 1
416 -2 434 -12z m631 -397 c20 -20 20 -33 20 -750 0 -718 0 -730 -20 -750 -20
-20 -31 -20 -322 -18 l-302 3 -20 79 -19 79 29 25 c90 76 334 296 334 303 0 4
-21 15 -46 26 -54 21 -54 15 0 182 20 63 34 116 32 119 -3 2 -53 -12 -113 -32
-59 -20 -115 -36 -124 -36 -11 0 -19 17 -27 61 -6 34 -14 64 -17 67 -7 8 -47
-31 -127 -125 -39 -46 -76 -83 -84 -83 -27 0 -15 76 56 373 12 49 20 95 18
102 -2 9 -30 -4 -86 -41 -45 -30 -86 -54 -90 -54 -5 0 -19 26 -32 58 -13 31
-46 104 -73 162 l-49 105 -47 -100 c-26 -55 -58 -126 -71 -159 -14 -32 -30
-61 -37 -63 -7 -3 -45 18 -86 46 -40 28 -76 51 -80 51 -13 0 -7 -30 39 -228
59 -251 59 -252 43 -252 -8 0 -62 48 -120 106 l-107 107 -11 -39 c-6 -21 -11
-46 -11 -54 -1 -43 -13 -44 -135 -11 -64 18 -119 30 -122 28 -3 -3 13 -61 36
-129 23 -68 41 -126 41 -129 0 -3 -22 -16 -50 -29 -27 -13 -50 -26 -50 -30 0
-5 283 -255 349 -307 23 -19 23 -21 11 -74 -7 -30 -19 -66 -27 -81 l-14 -28
-294 0 c-282 0 -296 1 -315 20 -20 20 -20 33 -20 750 0 717 0 730 20 750 20
20 33 20 1060 20 1027 0 1040 0 1060 -20z"/>
<path d="M4429 6446 c-288 -101 -413 -442 -271 -734 62 -128 212 -232 365
-253 310 -42 578 192 577 504 -1 232 -152 436 -365 492 -91 23 -226 20 -306
-9z m295 -155 c195 -86 267 -358 144 -541 -67 -100 -167 -147 -296 -138 -151
11 -263 118 -293 280 -33 178 59 355 213 410 65 23 166 19 232 -11z"/>
<path d="M5960 5965 l0 -495 75 0 75 0 0 495 0 495 -75 0 -75 0 0 -495z"/>
<path d="M6294 6451 c-50 -21 -70 -94 -39 -138 9 -13 33 -27 55 -33 92 -25
159 74 98 145 -25 28 -79 40 -114 26z"/>
<path d="M5445 6159 c-22 -11 -50 -31 -62 -45 -12 -13 -25 -24 -28 -24 -3 0
-5 18 -5 40 l0 40 -73 0 -74 0 0 -350 -1 -350 78 0 79 0 3 238 c3 263 5 272
71 313 49 31 137 23 177 -16 17 -16 35 -45 40 -64 5 -20 10 -134 10 -253 l0
-218 75 0 75 0 0 248 c0 277 -8 326 -61 386 -47 54 -103 76 -190 76 -56 0 -84
-5 -114 -21z"/>
<path d="M6820 6164 c-19 -8 -52 -31 -72 -52 l-38 -36 0 47 0 47 -70 0 -70 0
2 -347 3 -348 75 0 75 0 5 235 c5 246 7 255 54 300 21 19 40 25 90 28 59 4 65
2 98 -27 51 -44 58 -86 58 -330 l0 -211 76 0 76 0 -4 263 c-3 261 -3 262 -30
312 -51 97 -115 135 -225 135 -38 -1 -84 -8 -103 -16z"/>
<path d="M7470 6155 c-145 -69 -225 -242 -190 -410 16 -76 41 -125 93 -182 61
-66 125 -95 222 -101 95 -5 147 7 211 51 52 34 120 116 107 126 -4 4 -32 18
-61 31 l-53 24 -15 -22 c-18 -25 -87 -67 -127 -76 -48 -11 -130 19 -167 60
-30 35 -38 50 -54 102 l-7 22 257 0 256 0 -4 88 c-5 101 -26 152 -92 220 -66
70 -105 85 -221 89 -91 4 -105 2 -155 -22z m225 -128 c42 -24 85 -78 85 -108
0 -18 -11 -19 -175 -19 l-175 0 15 37 c43 104 155 144 250 90z"/>
<path d="M6260 5820 l0 -350 75 0 75 0 0 350 0 350 -75 0 -75 0 0 -350z"/>
<path d="M4147 5244 c-4 -4 -7 -225 -7 -491 l0 -483 80 0 80 0 -2 487 -3 488
-70 3 c-39 2 -74 0 -78 -4z"/>
<path d="M8762 5186 c-64 -24 -77 -33 -145 -96 -46 -42 -99 -134 -121 -209
-21 -73 -21 -230 0 -302 39 -129 126 -238 229 -285 112 -52 256 -50 363 3 69
35 155 127 176 189 25 74 25 74 -57 74 l-73 0 -21 -44 c-69 -141 -268 -162
-385 -39 -106 110 -117 347 -22 479 110 155 320 150 404 -9 l25 -47 73 0 72 0
0 28 c0 44 -57 148 -103 188 -75 65 -138 88 -252 91 -86 3 -109 0 -163 -21z"/>
<path d="M4717 4958 c-21 -6 -57 -28 -79 -49 -23 -22 -43 -39 -45 -39 -1 0 -3
18 -3 40 l0 40 -70 0 -70 0 0 -340 0 -340 75 0 75 0 0 198 c0 108 5 217 11
242 23 99 120 147 208 102 65 -33 71 -58 71 -314 l0 -228 80 0 80 0 0 225 c0
123 -5 247 -11 275 -15 68 -64 139 -117 169 -50 27 -145 36 -205 19z"/>
<path d="M5376 4953 c-248 -76 -326 -412 -138 -599 54 -54 98 -78 176 -94 138
-28 275 31 339 148 l27 50 -65 22 c-64 21 -67 22 -80 4 -8 -11 -15 -22 -15
-27 0 -4 -21 -21 -47 -37 -122 -78 -266 8 -280 167 -7 77 10 135 53 183 42 46
90 64 151 57 62 -7 90 -29 130 -106 1 -1 34 3 72 10 84 14 86 20 38 99 -69
117 -218 167 -361 123z"/>
<path d="M6051 4951 c-29 -11 -64 -27 -77 -35 -45 -30 -97 -92 -123 -146 -23
-48 -26 -68 -26 -160 0 -99 2 -109 33 -173 58 -118 167 -182 307 -181 139 2
247 69 308 193 29 60 32 73 32 161 0 82 -4 103 -27 152 -35 75 -98 142 -165
175 -75 36 -185 42 -262 14z m176 -132 c144 -54 168 -291 41 -393 -72 -57
-190 -43 -247 30 -70 89 -60 258 21 330 44 40 127 55 185 33z"/>
<path d="M6845 4954 c-22 -8 -57 -28 -77 -45 l-38 -30 0 36 0 35 -70 0 -70 0
0 -340 0 -340 74 0 74 0 4 228 c3 194 6 232 21 260 48 88 168 96 223 15 17
-25 19 -52 22 -265 l4 -238 74 0 74 0 0 218 c0 192 3 222 20 259 34 77 126
107 185 61 50 -39 55 -67 55 -313 l0 -225 75 0 75 0 0 243 c0 133 -5 260 -10
281 -14 63 -59 118 -119 149 -92 46 -188 33 -267 -36 l-44 -39 -44 39 c-70 62
-156 78 -241 47z"/>
<path d="M7900 4957 c-98 -28 -184 -108 -221 -206 -30 -80 -25 -233 11 -306
59 -122 171 -189 315 -188 86 0 134 16 193 60 32 24 92 98 92 113 0 4 -25 18
-56 30 l-55 23 -37 -36 c-44 -43 -78 -57 -138 -57 -95 0 -165 57 -188 153 l-6
27 251 0 252 0 -5 83 c-9 138 -74 240 -185 289 -56 24 -164 32 -223 15z m180
-150 c34 -22 62 -62 75 -104 l6 -23 -170 0 c-160 0 -171 1 -171 19 0 27 40 82
79 108 47 32 135 32 181 0z"/>
</g>
</svg>
