<svg xmlns="http://www.w3.org/2000/svg" version="1.1" xmlns:xlink="http://www.w3.org/1999/xlink" width="200" height="200"><svg xmlns="http://www.w3.org/2000/svg" version="1.1" xmlns:xlink="http://www.w3.org/1999/xlink" viewBox="0 0 200 200"><rect width="200" height="200" fill="url('#gradient')"></rect><defs><linearGradient id="SvgjsLinearGradient1001" gradientTransform="rotate(0 0.5 0.5)"><stop offset="0%" stop-color="#ffffff"></stop><stop offset="100%" stop-color="#ffffff"></stop></linearGradient></defs><g><g fill="#272d38" transform="matrix(2.2057081313947227,0,0,2.2057081313947227,-1.3822918118619185,116.33549495351912)" stroke="#3a5a7e" stroke-width="0"><path d="M8.41-3.78L8.41-3.78Q8.41-4.53 7.88-4.95Q7.34-5.37 6.01-5.82Q4.67-6.27 3.82-6.69L3.82-6.69Q1.05-8.05 1.05-10.42L1.05-10.42Q1.05-11.60 1.74-12.50Q2.43-13.41 3.69-13.91Q4.95-14.41 6.52-14.41L6.52-14.41Q8.06-14.41 9.27-13.87Q10.49-13.32 11.16-12.31Q11.84-11.30 11.84-10L11.84-10L8.42-10Q8.42-10.87 7.89-11.35Q7.35-11.83 6.45-11.83L6.45-11.83Q5.53-11.83 5.00-11.42Q4.46-11.02 4.46-10.39L4.46-10.39Q4.46-9.84 5.05-9.40Q5.63-8.96 7.11-8.48Q8.58-8.01 9.53-7.46L9.53-7.46Q11.84-6.13 11.84-3.80L11.84-3.80Q11.84-1.93 10.43-0.87Q9.02 0.20 6.57 0.20L6.57 0.20Q4.84 0.20 3.44-0.42Q2.04-1.04 1.33-2.12Q0.63-3.20 0.63-4.61L0.63-4.61L4.06-4.61Q4.06-3.47 4.65-2.92Q5.24-2.38 6.57-2.38L6.57-2.38Q7.42-2.38 7.92-2.75Q8.41-3.12 8.41-3.78ZM19.99 0L17.69-3.94L16.76-3.01L16.76 0L13.47 0L13.47-15.01L16.76-15.01L16.76-7.04L17.09-7.48L19.57-10.57L23.52-10.57L19.81-6.22L23.76 0L19.99 0ZM27.85-10.57L27.85 0L24.55 0L24.55-10.57L27.85-10.57ZM24.36-13.29L24.36-13.29Q24.36-13.99 24.86-14.44Q25.37-14.89 26.18-14.89Q26.99-14.89 27.50-14.44Q28.01-13.99 28.01-13.29Q28.01-12.59 27.50-12.14Q26.99-11.69 26.18-11.69Q25.37-11.69 24.86-12.14Q24.36-12.59 24.36-13.29ZM33.35-15L33.35 0L30.05 0L30.05-15L33.35-15ZM38.85-15L38.85 0L35.55 0L35.55-15L38.85-15ZM50.74-2.54L50.74 0L40.82 0L40.82-2.15L45.39-6.95Q47.08-8.88 47.08-10.01L47.08-10.01Q47.08-10.93 46.68-11.41Q46.28-11.88 45.52-11.88L45.52-11.88Q44.77-11.88 44.30-11.25Q43.83-10.61 43.83-9.65L43.83-9.65L40.53-9.65Q40.53-10.96 41.18-12.07Q41.84-13.17 43.00-13.80Q44.16-14.42 45.60-14.42L45.60-14.42Q47.90-14.42 49.15-13.36Q50.39-12.29 50.39-10.30L50.39-10.30Q50.39-9.46 50.08-8.67Q49.77-7.87 49.11-7.00Q48.45-6.12 46.98-4.66L46.98-4.66L45.15-2.54L50.74-2.54ZM61.43-8.57L61.43-6.03L56.04-6.03L56.04-2.64L62.40-2.64L62.40 0L52.61 0L52.61-14.22L62.42-14.22L62.42-11.57L56.04-11.57L56.04-8.57L61.43-8.57ZM72.89 0L69.60 0Q69.42-0.32 69.29-0.95L69.29-0.95Q68.38 0.20 66.75 0.20L66.75 0.20Q65.25 0.20 64.21-0.71Q63.16-1.61 63.16-2.98L63.16-2.98Q63.16-4.70 64.43-5.58Q65.70-6.46 68.13-6.46L68.13-6.46L69.14-6.46L69.14-7.01Q69.14-8.47 67.88-8.47L67.88-8.47Q66.71-8.47 66.71-7.31L66.71-7.31L63.42-7.31Q63.42-8.85 64.72-9.80Q66.03-10.76 68.05-10.76Q70.07-10.76 71.24-9.78Q72.41-8.79 72.44-7.07L72.44-7.07L72.44-2.39Q72.46-0.94 72.89-0.17L72.89-0.17L72.89 0ZM67.54-2.15L67.54-2.15Q68.15-2.15 68.56-2.41Q68.96-2.68 69.14-3.01L69.14-3.01L69.14-4.70L68.18-4.70Q66.46-4.70 66.46-3.15L66.46-3.15Q66.46-2.71 66.77-2.43Q67.07-2.15 67.54-2.15ZM80.71-10.64L80.65-7.59L79.57-7.67Q78.02-7.67 77.58-6.69L77.58-6.69L77.58 0L74.29 0L74.29-10.57L77.37-10.57L77.48-9.21Q78.31-10.76 79.79-10.76L79.79-10.76Q80.32-10.76 80.71-10.64L80.71-10.64ZM81.78-10.57L84.86-10.57L84.97-9.33Q86.06-10.76 87.99-10.76L87.99-10.76Q89.64-10.76 90.45-9.78Q91.27-8.79 91.30-6.81L91.30-6.81L91.30 0L88.00 0L88.00-6.67Q88.00-7.47 87.68-7.85Q87.35-8.22 86.50-8.22L86.50-8.22Q85.54-8.22 85.07-7.46L85.07-7.46L85.07 0L81.78 0L81.78-10.57Z"></path></g></g></svg><style>@media (prefers-color-scheme: light) { :root { filter: none; } }
@media (prefers-color-scheme: dark) { :root { filter: none; } }
</style></svg>