<svg aria-hidden="true" style="position: absolute; width: 0; height: 0; overflow: hidden;" version="1.1"
     xmlns="http://www.w3.org/2000/svg" xmlns:xlink="http://www.w3.org/1999/xlink">
    <defs>
        <symbol id="icon-menu" viewBox="0 0 32 32">
            <path d="M29.333 24.007c0 0.733-0.595 1.327-1.327 1.327h-10.68c-0.733 0-1.327-0.594-1.327-1.327s0.594-1.327 1.327-1.327h10.68c0.733 0 1.327 0.593 1.327 1.327zM29.333 16c0 0.733-0.595 1.327-1.327 1.327h-24.013c-0.733 0-1.327-0.594-1.327-1.327s0.594-1.327 1.327-1.327h24.013c0.733 0 1.327 0.595 1.327 1.327zM28.007 9.32c0.733 0 1.327-0.594 1.327-1.327s-0.594-1.327-1.327-1.327h-16.013c-0.733 0-1.327 0.594-1.327 1.327s0.594 1.327 1.327 1.327h16.013z"></path>
        </symbol>
        <symbol id="icon-close" viewBox="0 0 24 24">
            <path stroke-linejoin="miter" stroke-linecap="round" stroke-miterlimit="4" stroke-width="2" d="M9 6l6 6 6-6M9 18l6-6 6 6"></path>
        </symbol>
        <symbol id="icon-briefcase" viewBox="0 0 32 32">
            <path d="M14.366 6.363c-0.595 0.056-1.143 0.364-1.508 0.848-0.193 0.256-0.33 0.566-0.389 0.88-0.027 0.146-0.033 0.216-0.036 0.485l-0.003 0.261-7.558 0.003-0.061 0.014c-0.137 0.032-0.249 0.079-0.356 0.151-0.228 0.152-0.371 0.365-0.438 0.645l-0.014 0.059-0.003 7.484c-0.001 5.414 0 7.502 0.005 7.547 0.051 0.457 0.405 0.825 0.859 0.894 0.056 0.008 1.309 0.009 11.134 0.009s11.079-0.001 11.134-0.009c0.427-0.064 0.761-0.386 0.848-0.817l0.014-0.071v-7.506c0-7.299-0.001-7.508-0.012-7.569-0.015-0.083-0.052-0.193-0.087-0.266-0.142-0.285-0.389-0.477-0.708-0.551l-0.061-0.014-7.558-0.003-0.003-0.261c-0.004-0.269-0.009-0.339-0.036-0.485-0.104-0.553-0.43-1.048-0.9-1.368-0.3-0.204-0.644-0.327-1.006-0.361-0.087-0.008-3.174-0.008-3.259 0.001zM17.614 7.116c0.558 0.072 1.025 0.487 1.161 1.033 0.035 0.138 0.039 0.178 0.042 0.443l0.003 0.246h-5.64l0.003-0.246c0.003-0.264 0.007-0.304 0.042-0.443 0.123-0.489 0.512-0.879 1.003-1.002 0.163-0.041 0.063-0.039 1.764-0.040 1.379-0.001 1.552 0.001 1.622 0.009zM27.094 9.613c0.076 0.037 0.126 0.097 0.147 0.178 0.008 0.033 0.009 0.168 0.009 1.131 0 1.085-0.003 1.234-0.023 1.469-0.155 1.824-1.147 3.485-2.693 4.51-0.828 0.549-1.789 0.885-2.778 0.971-0.241 0.021-0.351 0.022-2.392 0.022h-2.044l-0.003-0.389c-0.003-0.424-0.005-0.452-0.042-0.596-0.135-0.521-0.574-0.91-1.108-0.98-0.094-0.012-0.239-0.012-0.334 0-0.534 0.070-0.973 0.458-1.108 0.98-0.037 0.144-0.039 0.172-0.042 0.596l-0.003 0.389h-2.044c-1.283 0-2.089-0.003-2.164-0.006-0.309-0.016-0.592-0.052-0.881-0.109-1.385-0.279-2.627-1.038-3.519-2.15-0.747-0.932-1.199-2.059-1.299-3.237-0.020-0.235-0.022-0.384-0.022-1.469 0-1.195-0.002-1.129 0.036-1.197 0.032-0.060 0.106-0.116 0.169-0.129 0.013-0.003 4.989-0.005 11.057-0.005l11.034 0.001 0.047 0.023zM4.827 15.109c0.366 0.672 0.863 1.297 1.447 1.819 0.926 0.826 2.061 1.383 3.274 1.606 0.221 0.041 0.455 0.071 0.741 0.095 0.114 0.009 0.318 0.011 2.259 0.014l2.134 0.003 0.004 0.619c0.004 0.674 0.002 0.637 0.041 0.788 0.11 0.423 0.441 0.775 0.858 0.912 0.143 0.047 0.264 0.066 0.412 0.066s0.269-0.019 0.412-0.066c0.417-0.137 0.748-0.489 0.858-0.912 0.039-0.151 0.038-0.113 0.041-0.788l0.004-0.619 2.134-0.003c2.319-0.004 2.166-0.002 2.503-0.038 1.316-0.141 2.569-0.672 3.594-1.525 0.381-0.317 0.729-0.676 1.029-1.063 0.221-0.284 0.431-0.604 0.596-0.909 0.036-0.066 0.067-0.123 0.071-0.128 0.004-0.006 0.006 1.696 0.006 4.838 0.001 4.811 0.001 4.848-0.012 4.887-0.023 0.075-0.073 0.132-0.148 0.166l-0.037 0.017-22.143-0.017c-0.074-0.034-0.124-0.091-0.147-0.166-0.013-0.039-0.013-0.077-0.012-4.887 0-3.142 0.003-4.844 0.006-4.838 0.003 0.005 0.035 0.063 0.071 0.128zM16.137 16.687c0.195 0.051 0.343 0.194 0.405 0.392l0.017 0.055 0.002 1.325c0.001 1.207 0.001 1.329-0.009 1.372-0.038 0.173-0.148 0.314-0.307 0.394-0.084 0.042-0.133 0.052-0.246 0.052s-0.162-0.011-0.246-0.052c-0.159-0.080-0.269-0.221-0.307-0.394-0.009-0.043-0.010-0.165-0.009-1.372l0.002-1.325 0.018-0.055c0.069-0.22 0.242-0.37 0.47-0.406 0.043-0.007 0.157 0.001 0.209 0.014z"></path>
        </symbol>
        <symbol id="icon-link" viewBox="0 0 32 32">
            <path d="M8.428 4.007c-1.114 0.063-2.162 0.511-2.956 1.264-0.226 0.214-0.421 0.435-0.586 0.664-0.978 1.354-1.16 3.137-0.478 4.671 0.19 0.428 0.435 0.808 0.768 1.191 0.101 0.117 6.26 6.274 6.377 6.376 0.417 0.362 0.844 0.625 1.338 0.824 0.438 0.177 0.877 0.28 1.384 0.326 0.15 0.014 0.57 0.016 0.716 0.004 0.674-0.056 1.244-0.216 1.813-0.507 0.384-0.197 0.721-0.434 1.052-0.739l0.102-0.094-0.332-0.331-0.331-0.332-0.060 0.056c-0.483 0.446-1.015 0.741-1.626 0.9-0.304 0.079-0.563 0.114-0.889 0.119-0.258 0.005-0.449-0.009-0.686-0.048-0.672-0.113-1.285-0.397-1.815-0.843-0.083-0.070-6.207-6.186-6.318-6.31-0.475-0.53-0.788-1.176-0.906-1.872-0.064-0.379-0.071-0.791-0.019-1.159 0.139-0.984 0.644-1.854 1.426-2.455 0.853-0.656 1.969-0.911 3.036-0.695 0.542 0.11 1.048 0.335 1.491 0.664 0.209 0.155 0.116 0.064 3.324 3.27l3.054 3.054 0.666-0.666-3.047-3.046c-1.676-1.676-3.083-3.078-3.128-3.116-0.436-0.379-0.87-0.645-1.381-0.848-0.62-0.245-1.322-0.359-1.988-0.321z"></path>
            <path d="M17.144 12.666c-0.019 0.001-0.079 0.005-0.134 0.009-0.324 0.022-0.679 0.086-0.994 0.178-0.703 0.207-1.324 0.561-1.871 1.067l-0.102 0.094 0.332 0.331 0.331 0.332 0.060-0.056c0.273-0.252 0.544-0.445 0.849-0.603 0.721-0.373 1.551-0.502 2.352-0.369 0.705 0.118 1.354 0.429 1.882 0.904 0.047 0.042 1.474 1.466 3.171 3.163 3.224 3.225 3.146 3.146 3.296 3.348 0.564 0.761 0.821 1.692 0.725 2.634-0.105 1.029-0.624 1.961-1.442 2.591-0.853 0.656-1.969 0.911-3.036 0.695-0.542-0.11-1.048-0.335-1.491-0.664-0.209-0.155-0.116-0.064-3.324-3.27l-3.054-3.054-0.666 0.666 3.047 3.046c1.676 1.676 3.083 3.078 3.128 3.116 0.238 0.206 0.462 0.371 0.704 0.515 1.478 0.881 3.345 0.88 4.819-0.002 0.372-0.223 0.692-0.481 1.004-0.809 0.625-0.658 1.047-1.504 1.202-2.41 0.18-1.053 0.003-2.126-0.505-3.059-0.163-0.299-0.354-0.571-0.602-0.856-0.101-0.117-6.26-6.274-6.377-6.376-0.305-0.265-0.601-0.467-0.938-0.641-0.557-0.287-1.129-0.451-1.778-0.509-0.102-0.009-0.505-0.018-0.587-0.012z"></path>
        </symbol>
        <symbol id="icon-monitor" viewBox="0 0 32 32">
            <path d="M5.059 7.223c-0.237 0.036-0.452 0.136-0.634 0.293-0.235 0.204-0.384 0.491-0.418 0.805-0.009 0.085-0.009 12.858-0.001 12.949 0.029 0.288 0.159 0.556 0.367 0.761 0.194 0.191 0.445 0.311 0.72 0.344 0.036 0.005 1.386 0.007 4.358 0.007 3.442 0 4.305 0.002 4.303 0.008-0.002 0.004-0.054 0.114-0.116 0.242s-0.236 0.496-0.389 0.816c-0.152 0.319-0.279 0.583-0.281 0.586s-0.375 0.004-0.829 0.004c-0.453 0-0.848 0.003-0.877 0.006-0.134 0.014-0.244 0.088-0.3 0.203-0.057 0.116-0.057 0.224 0 0.34 0.041 0.084 0.117 0.15 0.21 0.184l0.037 0.014 1.331 0.006c0.732 0.003 2.725 0.004 4.428 0.002 2.759-0.003 3.101-0.004 3.134-0.013 0.116-0.031 0.211-0.116 0.257-0.231 0.014-0.036 0.018-0.056 0.021-0.109 0.003-0.081-0.004-0.121-0.037-0.188-0.045-0.094-0.133-0.166-0.24-0.198-0.035-0.010-0.096-0.011-0.903-0.013l-0.866-0.002-0.169-0.354c-0.093-0.195-0.269-0.565-0.392-0.823s-0.224-0.471-0.224-0.473c0-0.003 2.093-0.005 4.652-0.005 3.214 0 4.668-0.002 4.704-0.007 0.275-0.034 0.526-0.154 0.72-0.344 0.209-0.205 0.338-0.473 0.367-0.761 0.009-0.091 0.009-12.864-0.001-12.949-0.034-0.314-0.183-0.601-0.418-0.805-0.184-0.159-0.399-0.258-0.638-0.293-0.060-0.009-1.113-0.010-10.944-0.009-9.199 0.001-10.886 0.002-10.934 0.009zM26.906 7.98c0.184 0.068 0.308 0.21 0.337 0.389 0.005 0.028 0.007 1.998 0.007 6.429 0 5.501-0.001 6.395-0.009 6.435-0.038 0.195-0.186 0.348-0.379 0.389-0.062 0.013-21.664 0.013-21.726-0.001-0.092-0.019-0.166-0.059-0.236-0.128-0.077-0.076-0.121-0.156-0.141-0.261-0.008-0.040-0.009-0.934-0.009-6.435 0-4.431 0.002-6.401 0.007-6.429 0.029-0.179 0.162-0.331 0.338-0.387 0.022-0.007 0.047-0.014 0.056-0.015s4.898-0.003 10.866-0.002l10.85 0.001 0.041 0.014zM17.010 23c0.16 0.335 0.336 0.705 0.392 0.822l0.101 0.212-1.85 0.002c-1.017 0.001-1.851 0.001-1.852-0.001s0.142-0.303 0.317-0.671c0.176-0.367 0.352-0.738 0.393-0.823l0.073-0.155 2.135 0.003 0.291 0.609z"></path>
            <path d="M15.906 9.004c-0.314 0.016-0.586 0.068-0.866 0.165-0.387 0.134-0.717 0.341-0.988 0.619-0.235 0.242-0.401 0.516-0.514 0.849l-0.035 0.103 0.001 0.091c0.001 0.050 0.009 0.273 0.020 0.494l0.019 0.404-0.024 0.052c-0.125 0.273-0.164 0.522-0.116 0.752 0.038 0.182 0.138 0.357 0.289 0.504l0.068 0.066 0.014 0.081c0.162 0.934 0.846 1.618 1.796 1.793 0.274 0.051 0.586 0.051 0.86 0 0.479-0.088 0.9-0.308 1.22-0.637 0.226-0.233 0.385-0.498 0.491-0.818 0.038-0.114 0.075-0.264 0.091-0.367l0.008-0.049 0.069-0.066c0.341-0.332 0.4-0.762 0.172-1.257l-0.024-0.052 0.022-0.473c0.016-0.346 0.021-0.481 0.016-0.505-0.008-0.040-0.036-0.139-0.065-0.224-0.241-0.708-0.837-1.227-1.653-1.435-0.271-0.069-0.603-0.103-0.87-0.089zM16.316 9.765c0.261 0.035 0.471 0.097 0.673 0.198 0.367 0.184 0.618 0.462 0.738 0.818l0.022 0.066-0.021 0.449c-0.024 0.514-0.025 0.561-0.012 0.613 0.005 0.021 0.027 0.073 0.050 0.116s0.049 0.105 0.061 0.137c0.019 0.056 0.021 0.064 0.021 0.146 0 0.086-0.001 0.089-0.020 0.129-0.026 0.055-0.069 0.1-0.122 0.128-0.076 0.040-0.146 0.121-0.173 0.204-0.008 0.021-0.017 0.078-0.023 0.128-0.033 0.318-0.127 0.574-0.291 0.794-0.060 0.081-0.205 0.224-0.286 0.283-0.379 0.273-0.885 0.359-1.367 0.233-0.184-0.048-0.342-0.123-0.496-0.233-0.083-0.059-0.238-0.214-0.296-0.295-0.161-0.224-0.249-0.469-0.283-0.784-0.011-0.105-0.026-0.151-0.067-0.213-0.034-0.051-0.079-0.091-0.136-0.122-0.048-0.026-0.089-0.070-0.114-0.123-0.019-0.041-0.020-0.044-0.020-0.129 0-0.082 0.001-0.091 0.021-0.146 0.011-0.032 0.039-0.094 0.061-0.137s0.045-0.096 0.050-0.116c0.013-0.051 0.012-0.104-0.012-0.609l-0.021-0.441 0.025-0.065c0.109-0.283 0.313-0.531 0.583-0.71 0.283-0.188 0.611-0.295 1.009-0.331 0.064-0.006 0.381 0.002 0.447 0.011z"></path>
            <path d="M14.909 15.348c-0.010 0.001-0.061 0.009-0.112 0.018-1.232 0.207-2.292 0.837-2.862 1.701-0.136 0.206-0.268 0.474-0.31 0.628-0.052 0.189-0.091 0.703-0.123 1.59-0.024 0.706-0.027 0.966-0.012 1.025 0.033 0.124 0.133 0.228 0.256 0.267l0.044 0.014h8.419l0.044-0.014c0.124-0.039 0.224-0.144 0.256-0.268 0.016-0.061 0.013-0.315-0.012-1.024-0.031-0.887-0.071-1.401-0.122-1.59-0.019-0.069-0.069-0.191-0.128-0.31-0.484-0.982-1.567-1.727-2.894-1.99-0.216-0.043-0.289-0.053-0.344-0.045-0.087 0.012-0.147 0.041-0.214 0.103-0.181 0.166-0.418 0.266-0.725 0.306-0.061 0.008-0.079 0.008-0.137 0.001-0.189-0.025-0.359-0.075-0.501-0.146-0.060-0.030-0.163-0.102-0.219-0.152-0.028-0.026-0.064-0.054-0.079-0.063-0.059-0.034-0.166-0.058-0.226-0.049zM14.876 16.148c0.274 0.195 0.649 0.324 1.058 0.365 0.126 0.012 0.37-0.023 0.592-0.086 0.207-0.059 0.394-0.144 0.572-0.262l0.069-0.046 0.087 0.019c1.104 0.233 1.997 0.854 2.349 1.634 0.051 0.113 0.064 0.157 0.075 0.256 0.029 0.261 0.066 1.003 0.082 1.651l0.004 0.164h-7.529l0.004-0.164c0.017-0.649 0.054-1.39 0.082-1.651 0.011-0.099 0.024-0.142 0.075-0.256 0.070-0.155 0.174-0.323 0.294-0.473 0.124-0.154 0.331-0.352 0.509-0.485 0.376-0.282 0.846-0.501 1.348-0.631 0.068-0.017 0.264-0.063 0.284-0.065 0.002-0.001 0.021 0.012 0.044 0.028z"></path>
        </symbol>
        <symbol id="icon-print" viewBox="0 0 32 32">
            <path d="M10.384 4.007c-0.579 0.045-1.116 0.284-1.507 0.671-0.137 0.136-0.227 0.249-0.318 0.4-0.127 0.213-0.205 0.426-0.251 0.697-0.011 0.063-0.011 0.336-0.014 6.15l-0.003 6.084-1.037 0.004c-0.571 0.002-1.048 0.006-1.059 0.008s-0.056 0.010-0.097 0.017c-0.284 0.047-0.572 0.166-0.809 0.334-0.346 0.246-0.604 0.591-0.742 0.994-0.046 0.134-0.082 0.309-0.096 0.459-0.009 0.098-0.009 6.255 0 6.356 0.049 0.561 0.335 1.078 0.786 1.418 0.279 0.211 0.592 0.337 0.952 0.387 0.081 0.011 0.416 0.011 9.813 0.011s9.731-0.001 9.813-0.011c0.409-0.056 0.756-0.211 1.063-0.477 0.386-0.334 0.631-0.816 0.675-1.328 0.009-0.101 0.009-6.259 0-6.356-0.049-0.54-0.308-1.026-0.734-1.375-0.255-0.208-0.586-0.358-0.913-0.412-0.041-0.007-0.085-0.014-0.097-0.017s-0.489-0.006-1.059-0.008l-1.038-0.004-0.001-4.532-0.002-4.533-0.023-0.021c-0.013-0.011-0.139-0.12-0.28-0.242-0.276-0.238-1.219-1.051-2.022-1.743-0.273-0.236-0.823-0.71-1.222-1.054s-1.026-0.884-1.394-1.202c-0.403-0.348-0.681-0.583-0.701-0.593-0.111-0.058-0.141-0.071-0.181-0.079-0.038-0.008-0.497-0.009-3.738-0.008-2.031 0-3.724 0.003-3.762 0.006zM17.396 6.251c0.002 1.583-0.001 1.466 0.039 1.657 0.128 0.603 0.571 1.131 1.194 1.419 0.267 0.124 0.565 0.2 0.867 0.223 0.057 0.004 0.663 0.006 1.742 0.006h1.654v9.662h-13.787l0.002-6.661 0.002-6.661 0.014-0.062c0.037-0.169 0.107-0.318 0.213-0.457 0.039-0.051 0.144-0.159 0.201-0.206 0.248-0.206 0.571-0.329 0.931-0.355 0.016-0.001 1.58-0.003 3.476-0.003l3.449-0.001 0.002 1.439zM18.828 5.829c0.327 0.281 0.643 0.554 0.703 0.606s0.53 0.457 1.044 0.9c0.514 0.443 0.996 0.859 1.072 0.924s0.225 0.194 0.331 0.285c0.107 0.092 0.203 0.174 0.212 0.183l0.019 0.017-1.344-0.002c-1.476-0.002-1.375 0.001-1.559-0.039-0.599-0.129-1.039-0.563-1.094-1.079-0.004-0.036-0.006-0.501-0.006-1.195v-1.137l0.014 0.013c0.008 0.007 0.281 0.242 0.608 0.524zM8.289 19.117c0.002 0.16 0.004 0.432 0.004 0.603v0.311h15.412v-0.311c0-0.171 0.002-0.443 0.004-0.603l0.004-0.292h0.974c0.846 0 0.983 0.001 1.044 0.010 0.209 0.029 0.411 0.117 0.574 0.249 0.049 0.040 0.144 0.136 0.184 0.185 0.134 0.167 0.223 0.386 0.247 0.607 0.009 0.085 0.009 6.174 0 6.26-0.060 0.553-0.499 0.987-1.056 1.045-0.036 0.004-0.356 0.006-0.792 0.006h-0.733l-0.003-0.599c-0.002-0.58-0.003-0.6-0.015-0.654-0.063-0.271-0.26-0.479-0.525-0.552l-0.061-0.017h-15.106l-0.063 0.017c-0.266 0.075-0.461 0.28-0.524 0.551-0.013 0.054-0.013 0.074-0.015 0.654l-0.003 0.599h-0.732c-0.436 0-0.756-0.003-0.792-0.006-0.413-0.043-0.77-0.293-0.947-0.664-0.059-0.124-0.094-0.249-0.109-0.381-0.009-0.086-0.009-6.175 0-6.26 0.020-0.184 0.082-0.361 0.181-0.513 0.049-0.076 0.082-0.116 0.152-0.187 0.156-0.159 0.335-0.262 0.546-0.317 0.131-0.034 0.105-0.033 1.162-0.034l0.982-0.001 0.004 0.292zM23.337 26.681v0.506h-14.675v-1.012h14.675v0.506z"></path>
            <path d="M10.731 7.019v0.406h5.594v-0.813h-5.594v0.406z"></path>
            <path d="M10.731 9.519v0.406h5.594v-0.813h-5.594v0.406z"></path>
            <path d="M10.731 12.019v0.406h10.537v-0.813h-10.537v0.406z"></path>
            <path d="M10.731 14.512v0.406h10.537v-0.813h-10.537v0.406z"></path>
            <path d="M10.731 17.012v0.406h10.537v-0.813h-10.537v0.406z"></path>
            <path d="M25.053 20.069c-0.124 0.019-0.228 0.074-0.316 0.167-0.107 0.112-0.155 0.241-0.148 0.398 0.004 0.091 0.014 0.131 0.054 0.213 0.054 0.111 0.136 0.193 0.247 0.247 0.081 0.039 0.121 0.050 0.207 0.054 0.148 0.008 0.266-0.031 0.381-0.124 0.080-0.064 0.15-0.176 0.178-0.283 0.019-0.073 0.019-0.192 0-0.265-0.052-0.198-0.203-0.348-0.396-0.394-0.061-0.015-0.156-0.021-0.207-0.012z"></path>
            <path d="M25.032 22.469c-0.159 0.027-0.314 0.142-0.386 0.29-0.039 0.080-0.052 0.131-0.057 0.219-0.008 0.159 0.044 0.295 0.154 0.407 0.070 0.071 0.156 0.121 0.253 0.147 0.072 0.019 0.192 0.019 0.264 0.001 0.198-0.053 0.343-0.198 0.396-0.396 0.019-0.072 0.019-0.192 0.001-0.265-0.054-0.204-0.221-0.361-0.425-0.401-0.050-0.009-0.148-0.011-0.2-0.002z"></path>
            <path d="M25.053 24.863c-0.231 0.036-0.41 0.207-0.457 0.438-0.012 0.063-0.009 0.18 0.007 0.241 0.016 0.058 0.067 0.158 0.106 0.204 0.070 0.084 0.171 0.15 0.276 0.181 0.058 0.016 0.169 0.023 0.233 0.012 0.21-0.034 0.385-0.194 0.441-0.403 0.019-0.073 0.019-0.192-0.001-0.266-0.051-0.194-0.199-0.343-0.391-0.393-0.056-0.015-0.159-0.021-0.212-0.013z"></path>
        </symbol>
        <symbol id="icon-truck" viewBox="0 0 32 32">
            <path d="M3 8.348c-0.145 0.045-0.272 0.152-0.337 0.283l-0.038 0.077v13.65l0.038 0.078c0.050 0.1 0.148 0.198 0.25 0.248l0.078 0.040 1.84 0.010 0.018 0.070c0.243 0.933 1.027 1.642 1.997 1.803 0.238 0.040 0.677 0.028 0.903-0.023 0.942-0.217 1.63-0.888 1.877-1.832 0.005-0.015 1.23-0.020 6.055-0.020h6.050l0.018 0.070c0.063 0.25 0.207 0.562 0.363 0.787 0.133 0.192 0.443 0.498 0.635 0.625 0.277 0.183 0.575 0.308 0.903 0.38 0.2 0.043 0.765 0.043 0.96 0 0.652-0.143 1.213-0.52 1.568-1.053 0.15-0.227 0.232-0.41 0.347-0.788 0.005-0.015 0.247-0.020 1.137-0.020 1.258 0 1.227 0.003 1.377-0.112 0.047-0.037 0.103-0.102 0.133-0.155l0.052-0.092v-6.8l-0.038-0.242c-0.065-0.407-0.152-0.735-0.29-1.1-0.438-1.157-1.332-2.15-2.43-2.708-0.532-0.268-0.977-0.412-1.592-0.513-0.213-0.035-0.26-0.035-2.52-0.040l-2.303-0.007-0.010-2.24-0.038-0.083c-0.048-0.105-0.138-0.198-0.245-0.255l-0.083-0.045-8.317-0.003c-4.575-0.002-8.335 0.003-8.358 0.010zM19.017 15.533v6.167h-9.365l-0.018-0.072c-0.228-0.92-0.903-1.612-1.795-1.835-0.34-0.085-0.743-0.098-1.070-0.035-0.59 0.115-1.142 0.458-1.5 0.937-0.2 0.267-0.353 0.585-0.427 0.883l-0.028 0.12-0.553 0.005c-0.303 0.003-0.568 0.003-0.588 0l-0.038-0.005v-12.332h15.383v6.167zM24.683 12.020c0.395 0.062 0.73 0.155 1.062 0.298 1.175 0.503 2.053 1.552 2.355 2.807 0.112 0.463 0.107 0.273 0.112 3.578l0.007 2.997h-1.667l-0.018-0.072c-0.205-0.813-0.758-1.453-1.508-1.743-0.42-0.163-0.928-0.21-1.358-0.127-0.567 0.11-1.093 0.43-1.462 0.883-0.212 0.26-0.405 0.662-0.473 0.978l-0.018 0.080h-1.663v-4.847c0-2.667 0.005-4.853 0.012-4.86s1.010-0.008 2.23-0.005c1.937 0.005 2.238 0.008 2.392 0.032zM24.567 20.813c0.233 0.077 0.398 0.18 0.575 0.36 0.263 0.268 0.395 0.555 0.42 0.92 0.023 0.343-0.085 0.688-0.302 0.972-0.357 0.462-1.007 0.663-1.56 0.482-0.51-0.165-0.88-0.583-0.978-1.105-0.032-0.163-0.022-0.465 0.020-0.625 0.1-0.38 0.363-0.713 0.708-0.897 0.26-0.138 0.408-0.172 0.725-0.163 0.207 0.005 0.252 0.012 0.392 0.057zM7.503 20.79c0.832 0.16 1.352 1.028 1.093 1.827-0.253 0.785-1.112 1.195-1.877 0.9-0.427-0.165-0.745-0.515-0.873-0.962-0.050-0.172-0.053-0.552-0.007-0.722 0.147-0.53 0.558-0.92 1.102-1.042 0.133-0.030 0.41-0.030 0.562-0.002z"></path>
            <path d="M6.55 12.010c-0.298 0.078-0.46 0.412-0.342 0.697 0.037 0.088 0.15 0.205 0.25 0.257l0.083 0.045h9.183l0.083-0.045c0.185-0.098 0.282-0.257 0.282-0.463 0-0.217-0.1-0.368-0.307-0.465l-0.092-0.043-4.525-0.003c-3.93-0.003-4.537 0-4.617 0.022z"></path>
            <path d="M5.098 14.343c-0.1 0.030-0.238 0.153-0.29 0.258-0.137 0.27 0 0.603 0.29 0.707 0.065 0.022 0.727 0.025 6.233 0.025 5.592 0 6.17-0.002 6.24-0.027 0.105-0.035 0.233-0.155 0.287-0.265 0.117-0.237 0.012-0.543-0.232-0.672l-0.085-0.045-6.183-0.003c-5.323-0.002-6.193 0-6.26 0.022z"></path>
            <path d="M6.55 16.657c-0.15 0.040-0.272 0.143-0.337 0.285-0.052 0.113-0.053 0.3-0.002 0.412 0.050 0.11 0.157 0.22 0.26 0.265l0.087 0.040h9.467l0.088-0.040c0.118-0.053 0.245-0.192 0.278-0.305 0.032-0.112 0.032-0.237-0.002-0.337-0.037-0.107-0.167-0.245-0.277-0.295l-0.088-0.040-4.7-0.003c-3.677-0.002-4.717 0.002-4.775 0.018z"></path>
            <path d="M21 12.582c-0.142 0.045-0.257 0.143-0.32 0.277l-0.047 0.1v3.237l0.052 0.103c0.035 0.072 0.078 0.125 0.135 0.168 0.157 0.125-0.095 0.117 3.315 0.117h3.063l0.097-0.035c0.137-0.050 0.27-0.188 0.312-0.322 0.075-0.235-0.013-0.89-0.182-1.353-0.387-1.068-1.292-1.9-2.377-2.188-0.425-0.113-0.328-0.108-2.257-0.112-0.962-0.003-1.768 0.002-1.792 0.008zM24.345 13.602c1 0.085 1.825 0.742 2.14 1.703 0.037 0.107 0.065 0.207 0.065 0.22 0 0.022-0.305 0.025-2.45 0.025h-2.45v-0.972c0-0.535 0.005-0.978 0.012-0.983 0.018-0.020 2.452-0.013 2.683 0.007z"></path>
        </symbol>
        <symbol id="icon-video" viewBox="0 0 32 32">
            <path d="M8.447 5.697c-0.027 0.001-0.095 0.005-0.15 0.009-1.282 0.086-2.46 0.728-3.237 1.764-0.753 1.003-1.042 2.279-0.797 3.515 0.173 0.868 0.607 1.671 1.241 2.29 0.055 0.053 0.12 0.115 0.145 0.137 0.046 0.041 0.053 0.051 0.034 0.051-0.021 0-0.166 0.037-0.252 0.066-0.436 0.143-0.822 0.409-1.106 0.766-0.272 0.341-0.437 0.729-0.498 1.171-0.011 0.078-0.011 0.277-0.011 4.206 0 3.428 0.001 4.136 0.009 4.191 0.035 0.275 0.102 0.504 0.217 0.742 0.276 0.574 0.772 1.012 1.376 1.213 0.15 0.051 0.329 0.089 0.504 0.108 0.111 0.012 13.332 0.012 13.444 0 0.531-0.059 0.992-0.27 1.377-0.631 0.384-0.36 0.644-0.864 0.713-1.38 0.017-0.127 0.019-0.198 0.019-0.683 0-0.31 0.003-0.515 0.006-0.517s0.216 0.118 0.473 0.266c0.257 0.149 0.604 0.349 0.771 0.445s0.439 0.254 0.606 0.35c0.167 0.096 0.465 0.268 0.663 0.383s0.679 0.392 1.069 0.617c0.879 0.508 1.23 0.71 1.984 1.146 0.327 0.189 0.609 0.349 0.628 0.358 0.175 0.071 0.392-0.014 0.474-0.186 0.014-0.029 0.028-0.067 0.032-0.086 0.005-0.024 0.007-1.811 0.007-6.334 0-5.597-0.001-6.306-0.009-6.339-0.054-0.215-0.285-0.339-0.493-0.266-0.019 0.006-0.311 0.171-0.649 0.367-0.797 0.46-1.033 0.596-1.839 1.062-0.367 0.213-0.988 0.57-1.378 0.796s-0.834 0.482-0.988 0.57-0.404 0.234-0.559 0.323c-0.154 0.089-0.394 0.227-0.532 0.307s-0.254 0.145-0.258 0.145c-0.005 0-0.007-0.143-0.008-0.512 0-0.293-0.003-0.541-0.007-0.58-0.076-0.809-0.561-1.521-1.286-1.883-0.166-0.083-0.351-0.151-0.509-0.186-0.044-0.009-0.079-0.019-0.079-0.021s0.032-0.032 0.071-0.066c0.139-0.125 0.336-0.333 0.464-0.492 1.003-1.243 1.258-2.928 0.669-4.414-0.329-0.83-0.922-1.559-1.672-2.054-0.589-0.389-1.255-0.63-1.953-0.706-0.329-0.036-0.709-0.034-1.025 0.006-0.391 0.049-0.754 0.143-1.109 0.286-0.752 0.303-1.406 0.806-1.894 1.458-0.178 0.237-0.324 0.48-0.45 0.743-0.026 0.054-0.048 0.098-0.050 0.098s-0.024-0.044-0.050-0.098c-0.279-0.584-0.688-1.105-1.191-1.518-0.698-0.573-1.546-0.914-2.454-0.987-0.116-0.009-0.406-0.016-0.502-0.012zM8.925 6.472c0.476 0.044 0.904 0.166 1.325 0.378 0.872 0.44 1.536 1.214 1.836 2.144 0.079 0.246 0.132 0.501 0.162 0.787 0.015 0.148 0.015 0.523 0 0.675-0.049 0.484-0.169 0.901-0.379 1.316-0.178 0.351-0.401 0.659-0.679 0.937-0.297 0.296-0.609 0.519-0.991 0.707-0.129 0.064-0.168 0.089-0.207 0.141-0.175 0.223-0.063 0.546 0.213 0.61 0.034 0.008 0.354 0.009 2.457 0.008l2.418-0.002 0.046-0.017c0.148-0.054 0.245-0.182 0.255-0.336 0.008-0.126-0.049-0.252-0.147-0.325-0.018-0.014-0.092-0.054-0.166-0.090-0.826-0.408-1.473-1.116-1.8-1.973-0.153-0.401-0.229-0.793-0.239-1.231-0.019-0.818 0.232-1.608 0.721-2.266 0.2-0.269 0.474-0.544 0.749-0.75 0.944-0.709 2.196-0.915 3.325-0.547 1.165 0.381 2.064 1.32 2.393 2.501 0.117 0.42 0.157 0.864 0.119 1.305-0.098 1.116-0.699 2.12-1.641 2.741-0.139 0.091-0.244 0.151-0.411 0.233-0.124 0.061-0.137 0.070-0.175 0.108-0.051 0.051-0.080 0.099-0.099 0.164-0.017 0.060-0.019 0.139-0.005 0.196 0.032 0.127 0.129 0.231 0.253 0.273 0.040 0.014 0.048 0.014 0.534 0.018 0.462 0.003 0.499 0.004 0.577 0.017 0.274 0.044 0.522 0.151 0.739 0.319 0.073 0.057 0.198 0.179 0.257 0.253 0.176 0.218 0.291 0.476 0.333 0.745 0.005 0.034 0.011 0.074 0.014 0.088s0.006 0.423 0.008 0.909l0.004 0.884 0.017 0.044c0.043 0.109 0.128 0.191 0.236 0.229 0.056 0.019 0.156 0.024 0.212 0.009s0.057-0.014 0.444-0.239c0.191-0.11 0.627-0.362 0.969-0.559s1.089-0.629 1.659-0.958c0.571-0.329 1.163-0.671 1.316-0.759s0.424-0.245 0.603-0.348c1.055-0.609 1.248-0.721 1.251-0.721 0.001 0 0.003 2.514 0.003 5.588s-0.001 5.587-0.003 5.587c-0.002 0-0.168-0.094-0.367-0.21s-0.436-0.252-0.523-0.302-0.332-0.192-0.544-0.314c-0.211-0.122-0.632-0.365-0.934-0.539s-0.875-0.505-1.272-0.734c-0.871-0.503-1.889-1.091-2.244-1.296-0.142-0.082-0.273-0.156-0.289-0.164-0.061-0.031-0.162-0.043-0.238-0.027-0.1 0.021-0.207 0.102-0.254 0.192-0.044 0.086-0.041 0.012-0.046 0.976-0.003 0.609-0.006 0.894-0.011 0.931-0.050 0.37-0.203 0.683-0.458 0.938-0.251 0.249-0.556 0.399-0.921 0.451-0.083 0.012-13.286 0.012-13.369 0-0.427-0.061-0.786-0.264-1.046-0.592-0.206-0.259-0.317-0.556-0.338-0.897-0.011-0.168-0.005-8.028 0.005-8.1 0.029-0.198 0.077-0.357 0.154-0.513 0.079-0.159 0.162-0.276 0.284-0.402 0.274-0.282 0.616-0.444 1.006-0.479 0.039-0.003 0.266-0.006 0.504-0.006 0.409 0 0.434-0.001 0.48-0.012 0.070-0.018 0.119-0.046 0.173-0.1 0.076-0.075 0.112-0.161 0.112-0.271 0-0.101-0.037-0.191-0.109-0.264-0.041-0.042-0.052-0.049-0.178-0.111-0.372-0.184-0.674-0.396-0.958-0.673-0.404-0.394-0.699-0.85-0.891-1.377-0.235-0.644-0.281-1.379-0.128-2.054 0.206-0.909 0.748-1.703 1.521-2.226 0.548-0.371 1.172-0.582 1.844-0.624 0.121-0.008 0.404-0.003 0.531 0.009zM12.691 12.016c0.148 0.314 0.351 0.633 0.575 0.906 0.1 0.122 0.194 0.223 0.334 0.361l0.131 0.13h-2.174l0.135-0.133c0.186-0.183 0.299-0.311 0.441-0.499 0.181-0.239 0.336-0.494 0.461-0.758 0.026-0.054 0.048-0.098 0.050-0.098s0.023 0.041 0.047 0.091z"></path>
            <path d="M7.369 16.194c-0.154 0.021-0.276 0.126-0.323 0.278-0.011 0.036-0.011 0.146-0.011 3.15v3.113l0.018 0.050c0.044 0.125 0.142 0.217 0.268 0.251 0.038 0.011 0.294 0.011 5.253 0.011s5.214-0.001 5.252-0.011c0.131-0.036 0.236-0.141 0.274-0.273 0.011-0.039 0.011-0.152 0.011-3.141 0-2.584-0.001-3.106-0.009-3.134-0.033-0.137-0.135-0.242-0.276-0.286-0.032-0.010-0.343-0.011-5.228-0.011-2.856-0.001-5.209 0.001-5.228 0.004zM17.347 19.619v2.666l-9.553 0.003v-5.338l9.553 0.003v2.666z"></path>
        </symbol>
    </defs>
</svg>
